<?xml version="1.0" encoding="utf-8"?>
<!DOCTYPE svg PUBLIC "-//W3C//DTD SVG 1.1//EN" "http://www.w3.org/Graphics/SVG/1.1/DTD/svg11.dtd">
<svg version="1.1" id="Bau" xmlns="http://www.w3.org/2000/svg" xmlns:xlink="http://www.w3.org/1999/xlink" x="0px" y="0px"
	 width="314px" height="314px" viewBox="0 0 314 314" enable-background="new 0 0 314 314" xml:space="preserve">

<circle fill="#F4F4F4" stroke="#444444" stroke-width="2" stroke-miterlimit="10" cx="157" cy="157" r="156"/>

<path fill="#58585A" d="M188.387,192.04c-4.845-3.217-9.282-7.011-14.289-10.036c-26.495-16.004-53.18-31.683-80.088-46.981
	c-8.513-4.84-16.691-10.353-25.962-13.753c-0.313-0.115-0.646-0.191-0.966-0.285c-2.663-0.78-5.352-1.477-8.117-1.773
	c-2.73-0.291-5.485-0.202-8.203,0.168c-2.666,0.363-5.311,0.97-7.851,1.859c-2.573,0.9-5.007,2.134-7.263,3.665
	c-2.432,1.651-4.97,3.446-6.94,5.63c-1.9,2.107-2.806,4.458-3.244,5.755c-0.498,1.476-0.668,3.586-0.537,5.145
	c0.134,1.605,0.249,2.866,0.765,4.294c0.502,1.388,1.601,3.066,2.827,4.26c1.23,1.198,3.373,2.908,5.465,3.666
	c1.985,0.719,4.148,1.011,6.246,0.728c2.191-0.295,4.198-1.25,5.983-2.529c1.031-0.739,1.992-1.571,2.918-2.436
	c0.976-0.911,2.078-1.839,2.917-2.878c0.675-0.835,1.331-1.689,2.051-2.483c5.703-6.288,14.885-7.309,21.603-2.153
	c7.068,5.425,14.466,10.339,22.13,14.847c1.962,1.154,2.756,2.465,2.887,4.7c1.128,19.277,2.433,38.543,3.519,57.822
	c0.346,6.142,2.718,11.284,6.749,15.705c9.695,10.635,21.638,12.712,34.859,8.407c12.901-4.201,18.794-13.938,20.182-26.939
	c0.608-5.697,1.347-11.38,2.08-17.522c1.267,0.673,1.939,0.986,2.567,1.371c3.531,2.168,7.119,4.26,11.131,5.382
	c3.377,0.944,6.282,0.043,7.396-3.526C190.252,198.788,193.14,195.196,188.387,192.04z M150.269,190.652
	c-1.126,8.509-2.219,17.023-3.405,25.524c-0.991,7.108-5.934,10.723-13.814,10.234c-6.027-0.374-9.824-4.677-10.227-11.342
	c-0.805-13.315-1.709-26.625-2.545-39.938c-0.093-1.478-0.013-2.966-0.013-5.058c9.855,5.837,19.298,11.468,28.79,17.015
	C150.641,188.015,150.451,189.278,150.269,190.652z"/>
<path fill="#F4CD84" stroke="#707173" stroke-width="2" stroke-miterlimit="10" d="M246.671,105.299l-143.65,0.047
	c-7.951,0-12.233,2.824-12.314,8.097c-0.106,6.875,2.523,8.137,7.256,10.797c2.655,1.492,87.467,50.365,87.467,50.365
	c8.692,4.846,12.953,4.846,18.719-0.943l52.522-54.956C263.342,111.909,260.693,105.299,246.671,105.299z"/>
<path fill="#58585A" d="M231.143,179.451c-20.709-0.166-37.823,16.826-37.877,37.608c-0.054,20.595,16.789,37.501,37.389,37.529
	c21.114,0.029,37.714-16.465,37.723-37.483C268.388,196.356,251.835,179.617,231.143,179.451z M230.97,235.644
	c-10.343,0.001-18.87-8.442-18.782-18.597c0.088-10.163,8.764-18.746,18.857-18.656c10.296,0.092,18.502,8.546,18.39,18.946
	C249.325,227.532,241.144,235.644,230.97,235.644z"/>
<path fill="#F29E01" stroke="#707173" stroke-width="2" stroke-miterlimit="10" d="M230.669,96.125c-22.827,0-45.075,0-67.322,0
	c-9.823,0-19.647-0.019-29.47,0.013c-2.527,0.008-4.38,0.415-3.049-3.608c1.171-3.542,2.461-7.044,3.767-10.532
	c4.718-12.601,12.294-13.796,23.721-9.426c5.513,2.109,11.158,2.178,16.723,3.27c3.142,0.616,5.453-0.653,7.601-3.019
	c2.227-2.454,4.543-4.829,7.384-6.76c6.005-4.08,12.189-4.401,18.352-0.374C219.442,72.921,226.592,83.015,230.669,96.125z"/>
<path fill="#59595B" d="M230.302,208.569c-4.745-0.095-8.767,3.789-8.9,8.593c-0.132,4.792,3.705,8.77,8.551,8.864
	c4.808,0.093,8.792-3.718,8.918-8.531C238.995,212.761,235.062,208.664,230.302,208.569z"/>

</svg>