<?xml version="1.0" encoding="utf-8"?>
<!DOCTYPE svg PUBLIC "-//W3C//DTD SVG 1.1//EN" "http://www.w3.org/Graphics/SVG/1.1/DTD/svg11.dtd">
<svg version="1.1" id="Garten" xmlns="http://www.w3.org/2000/svg" xmlns:xlink="http://www.w3.org/1999/xlink" x="0px" y="0px"
	 width="314px" height="314px" viewBox="0 0 314 314" enable-background="new 0 0 314 314" xml:space="preserve">

<circle fill="#F4F4F4" stroke="#444444" stroke-width="2" stroke-miterlimit="10" cx="157" cy="157" r="156"/>

<path fill="#444444" d="M224.075,42.794c1.883,2.132-1.062,6.288-3.109,8.554c-7.814,8.649-15.505,17.387-22.432,26.772
	c-0.864,1.171-1.693,2.368-2.54,3.551c-5.193,7.249-6.235,15.001-2.265,23.054c2.797,5.672,2.866,10.977-0.051,16.659
	c-4.232,8.242-2.932,17.001-1.622,25.688c1.257,8.342,2.639,16.669,3.663,25.039c0.545,4.45,1.272,9.54-3.037,12.488
	c-4.281,2.929-8.42-0.077-12.115-2.234c-5.02-2.93-9.747-6.358-14.69-9.427c-2.536-1.574-2.652-3.47-1.574-5.938
	c1.992-4.563,4.766-8.678,7.483-12.789c4.167-6.304,3.746-12.261-0.517-18.191c-2.038-2.835-3.929-5.834-6.322-8.344
	c-4.252-4.461-5.761-9.665-5.164-15.607c2.763-27.529,16.857-48.039,39.417-63.201c4.852-3.261,11.586-5.743,16.336-6.8
	C221.476,40.789,222.132,40.881,224.075,42.794z"/>
<path fill="#707173" d="M201.437,136.88c-0.537-2.214,0.421-4.264,0.804-6.337c1.669-9.04,1.12-17.971-1.222-26.788
	c-1.703-6.414,0.18-11.392,5.329-15.362c13.608-10.491,28.996-13.474,45.631-10.487c4.621,0.83,8.735,3.19,11.556,7.245
	c3.02,4.341,2.263,7.173-2.587,9.215c-5.752,2.421-11.585,4.652-17.315,7.122c-15.201,6.55-27.291,17.002-37.323,30.004
	c-1.412,1.83-2.907,3.596-4.379,5.379C201.872,136.942,201.651,136.88,201.437,136.88z"/>
<path fill="#707173" d="M145.61,151.365c-0.291,0-0.582,0.001-0.873,0c-3.93-0.009-8.337,1.1-11.667-0.319
	c-3.923-1.671-1.089-6.641-2.056-10.115c-2.676-9.615-8.584-17.1-14.886-24.338c-2.006-2.303-2.188-3.672,0.041-5.608
	c1.755-1.524,3.296-3.292,5.018-4.857c5.508-5.006,11.455-7.391,18.587-3.148c1.479,0.88,3.233,1.287,4.836,1.968
	c2.406,1.023,5.112,1.688,7.102,3.253c2.445,1.922-0.529,4.333-0.319,6.694c0.545,6.108,2.466,11.616,5.828,16.676
	c2.092,3.149,4.393,6.175,6.272,9.445c3.087,5.372,0.946,9.618-5.23,10.154c-4.188,0.364-8.434,0.069-12.653,0.069
	C145.611,151.283,145.611,151.324,145.61,151.365z"/>
<path fill="#FBFBFB" d="M184.518,114.91c0.023,4.497-2.783,7.443-7.134,7.489c-4.132,0.044-7.222-2.853-7.322-6.865
	c-0.102-4.069,3.176-7.71,7.037-7.819C181.207,107.599,184.497,110.79,184.518,114.91z"/>
<path fill="#F29E01" stroke="#707173" stroke-width="2" stroke-miterlimit="10" d="M38.317,197.163
	c-2.587,0.028-5.179-1.733-4.865-5.223c0.348-3.86,1.977-7.295,3.885-10.55c14.964-25.518,36.134-44.173,62.913-56.55
	c2.097-0.969,4.339-1.683,6.577-2.275c2.225-0.589,4.353-0.191,6.011,1.603c4.794,5.187,8.808,10.849,10.421,17.874
	c0.878,3.822-0.121,6.426-4.074,8.401c-16.384,8.186-33.241,15.536-48.62,25.58c-8.882,5.801-24.351,17.581-25.843,18.653
	C43.317,195.766,41.561,197.19,38.317,197.163z"/>
<path fill="#F29E01" stroke="#707173" stroke-width="2" stroke-miterlimit="10" d="M117.572,262.305
	c-1.158-28.818,10.877-54.138,28.066-77.431c7.963-10.791,12.875-10.773,22.601-1.48c2.843,2.716,5.634,5.484,7.691,8.894
	c2.067,3.428,2.065,6.553-1.145,9.317c-20.934,18.022-31.279,42.611-41.617,67.193c-2.143,5.096-4.034,10.315-7.55,14.678
	c-0.957,1.188-1.965,2.774-3.898,2.298c-1.877-0.462-2.07-2.266-2.524-3.761c-0.379-1.249-0.769-2.532-0.869-3.822
	C117.943,273.265,117.001,268.371,117.572,262.305z"/>

</svg>