<?xml version="1.0" encoding="utf-8"?>
<!DOCTYPE svg PUBLIC "-//W3C//DTD SVG 1.1//EN" "http://www.w3.org/Graphics/SVG/1.1/DTD/svg11.dtd">
<svg version="1.1" id="Haus" xmlns="http://www.w3.org/2000/svg" xmlns:xlink="http://www.w3.org/1999/xlink" x="0px" y="0px"
	 width="314px" height="314px" viewBox="0 0 314 314" enable-background="new 0 0 314 314" xml:space="preserve">

<circle fill="#F4F4F4" stroke="#444444" stroke-width="2" stroke-miterlimit="10" cx="157" cy="157" r="156"/>

<path fill="#666666" d="M267.948,121.744c3.419,2.051,3.214,3.476,1.052,6.231l-10.098,14.182
	c-2.281,3.715-3.266,4.379-7.879,1.686l-90.021-54.292c-3.85-2.462-6.962-2.449-11.161,0.157l-90.765,53.879
	c-3.297,2.032-4.656,1.418-6.38-1.631l-9.645-15.605c-1.937-2.83-1.923-4.178,1.315-6.042l33.119-19.79
	c2.751-1.611,3.91-3.296,3.893-6.659l-0.135-25.442c0.019-2.703,0.741-3.838,3.701-3.844l26.385-0.011
	c2.739,0.002,3.568,0.769,3.568,3.847L114.86,75c0,1.414,1.093,2.269,2.21,1.536c0,0,28.198-17.277,36.047-21.57
	c1.89-1.034,3.955-1.068,5.645-0.046L267.948,121.744z"/>
<path fill="#58585A" d="M19.098,245.72c0.501-4.215,4.698-10.768,11.483-11.542c1.707-0.195,1.672-2.123,2.23-3.331
	c4.667-10.103,10.111-13.063,21.088-10.825c2.459,0.501,3.94,0.096,5.761-1.502c8.922-7.83,24.789-8.399,33.152,3.481
	c-1.018-9.677-10.412-14.039-27.002-12.298l-0.016-60.772c-0.005-2.099,0.19-3.558,2.473-4.881l83.819-48.898
	c2.431-1.479,4.196-1.451,6.635,0.007l84.43,49.654c2.047,1.189,2.842,2.339,2.837,4.679l-0.007,100.897
	c0,4.175-0.829,5.411-4.698,5.411l-22.724-0.031c-3.185,0-3.821-1.078-3.801-4.004l0.138-52.333
	c0.031-3.258-0.819-4.185-4.111-4.185l-33.472-0.002c-3.431-0.071-4.092,1.041-4.064,4.231l0.157,51.861
	c0.036,3.442-1.069,4.501-4.692,4.463l-58.27,0.029c1.657-5.687,2.133-11.157,0.066-16.541c-2.022-5.269-9.018-9.689-14.564-9.009
	c-0.841,0.103-1.526,0.214-1.657,1.221c-0.126,0.968-0.225,1.926,0.966,2.305c1.343,0.427,2.733,0.721,4.052,1.207
	c7.28,2.681,10.547,8.841,9.047,16.466c-0.614,3.122-1.914,4.319-5.311,4.295l-75.898-0.026c-4.305,0.036-7.223-0.83-7.96-5.016
	C18.833,248.667,18.833,248.667,19.098,245.72z"/>
<path fill="#58585A" d="M175.208,226.321c0-8.31-0.071-24.929-0.071-24.929c-0.079-3.128,0.53-4.265,4.012-4.265l30.102,0.03
	c2.745-0.041,3.786,0.492,3.757,3.554l0.006,51.271c0,3.284-1.141,3.809-4.022,3.764l-29.63,0.046
	c-3.802,0.121-4.309-1.272-4.225-4.542C175.137,251.25,175.208,234.631,175.208,226.321z"/>
<path fill="#7BB41F" d="M244.154,248.099c0,4.669-1.575,5.778-5.964,5.778l-16.018,0.002c-4.47,0-5.662-0.808-5.583-5.342
	l0.2-50.436c0.043-3.723-1.004-4.815-4.739-4.743l-35.822-0.012c-4.124,0-4.916,1.308-4.874,5.09l0.158,50.909
	c0.035,3.48-0.878,4.576-4.46,4.537l-49.966-0.026c-3.337,0.024-4-0.606-3.518-4.224c1.149-8.622-2.068-19.783-14.6-20.613
	c-2.623-0.174-4.898-0.562-4.142-5.019c1.361-8.014-8.416-16.155-17.868-16.155c-4.685,0,0.002-0.043-4.685-0.043
	c-4.632,0-4.632,0-4.631-5.562l-0.003-51.381c0-3.438,0.708-4.352,3.322-5.856l80.753-47.309c2.351-1.453,4.799-1.535,7.284-0.061
	l82.328,48.591c2.366,1.383,2.767,2.897,2.758,5.243L244.154,248.099z"/>
<path fill="#EAF3DC" d="M63.428,253.8c-12.558,0-25.118-0.128-37.673,0.085c-3.36,0.057-4.402-1.352-4.714-4.253
	c-0.687-6.375,2.771-11.654,9.181-13.299c2.092-0.537,2.994-1.477,3.802-3.448c4.45-10.868,9.583-13.506,21.046-10.646
	c2.314,0.577,3.399-0.207,4.87-1.515c6.65-5.916,14.25-7.578,22.691-4.554c6.357,2.277,9.863,6.76,9.55,13.523
	c-0.201,4.331,1.239,5.748,5.273,6.757c6.928,1.733,10.054,6.787,9.349,13.232c-0.323,2.953-1.45,4.254-4.759,4.201
	C89.174,253.679,76.3,253.8,63.428,253.8z"/>
<path fill="#EAF3DC" d="M211.097,250.669c0.044,2.494-0.694,3.246-3.152,3.213l-27.847-0.026c-2.718,0-3.052-1.061-3.041-3.337
	l-0.019-48.052c-0.02-2.692,0.784-3.466,3.446-3.423l27.322-0.006c2.862-0.054,3.326,1.094,3.286,3.58L211.097,250.669z"/>
<path fill="#58585A" d="M98.731,194.441c-2.919,0.077-3.776-0.946-3.738-3.791l0.015-30.614c-0.02-2.298,0.624-3.734,2.805-4.814
	l17.827-9.388c2.191-1.229,3.882-1.098,6.039,0.044l18.067,8.998c2.385,1.134,3.512,2.555,3.464,5.384l-0.007,30.142
	c0,3.041-0.81,4.046-3.969,4.046L98.731,194.441z"/>
<path fill="#EAF3DC" d="M117.886,148.914v21.917c0,2.843,0,2.842-3.074,2.842l-15.203-0.004c-2.762,0-2.757,0.004-2.757-2.672
	l0.048-10.819c0-2.01,0-2.01,1.184-2.703l18.265-9.677C117.3,147.263,117.886,147.794,117.886,148.914z"/>
<path fill="#EAF3DC" d="M138.558,175.253c2.597,0,2.597,0,2.597,2.589v12.251c0,2.644,0,2.601-2.423,2.601h-16.863
	c-2.5,0-2.45,0-2.45-2.561l-0.001-12.172c0-2.767,0-2.767,2.676-2.767L138.558,175.253z"/>
<path fill="#EAF3DC" d="M99.81,192.674c-2.959,0-2.959,0.041-2.959-3.515v-12.068c-0.005-1.913-0.005-1.913,2.363-1.913h16.439
	c2.217,0,2.233-0.015,2.233,1.988c0,0,0,9.452,0,13.085c0,2.465,0.047,2.465-2.368,2.465L99.81,192.674z"/>
<path fill="#EAF3DC" d="M119.417,149.032l0.001,21.775c0,2.87-0.001,2.87,3.184,2.867l15.745-0.004c2.86,0,2.852,0,2.852-1.962
	l-0.047-11.646c0-2.067,0-2.067-1.226-2.727l-18.676-9.426C120.188,147.342,119.417,147.826,119.417,149.032z"/>

</svg>