<?xml version="1.0" encoding="utf-8"?>
<!DOCTYPE svg PUBLIC "-//W3C//DTD SVG 1.1//EN" "http://www.w3.org/Graphics/SVG/1.1/DTD/svg11.dtd">
<svg version="1.1" id="Logo" xmlns="http://www.w3.org/2000/svg" xmlns:xlink="http://www.w3.org/1999/xlink" x="0px" y="0px"
	 width="664.87px" height="277.923px" viewBox="0 0 664.87 277.923" enable-background="new 0 0 664.87 277.923"
	 xml:space="preserve">

<path fill="#7CB52C" d="M485.471,213.408H15.504c-6.627,0-12-5.373-12-12V12c0-6.627,5.373-12,12-12h469.967V213.408z"/>
<g opacity="0.5">
	<path fill="none" stroke="#1F201D" stroke-width="4" d="M28.161,180.851V31.678h25.182v64.663h74.053V31.678h25.182V180.85
		h-25.182v-61.035H53.343v61.035H30.161L28.161,180.851z"/>
	<path fill="none" stroke="#1F201D" stroke-width="4" d="M297.267,108.292h25.182v51.005
		c-14.085,15.509-34.218,23.261-60.394,23.261c-22.054,0-40.514-7.256-55.379-21.768c-14.869-14.512-22.301-32.865-22.301-55.059
		s7.576-40.687,22.728-55.486c15.152-14.795,33.469-22.194,54.953-22.194c21.481,0,39.337,6.262,53.566,18.78l-13.445,19.207
		c-5.835-4.978-11.704-8.43-17.606-10.35c-5.905-1.92-12.771-2.881-20.594-2.881c-15.082,0-27.743,4.875-37.987,14.618
		c-10.244,9.747-15.365,22.551-15.365,38.413c0,15.866,4.978,28.597,14.939,38.2c9.957,9.603,22.014,14.405,36.173,14.405
		c14.155,0,25.999-3.058,35.533-9.176v-42.975L297.267"/>
	<path fill="none" stroke="#1F201D" stroke-width="4" d="M400.661,51.312c-7.329,0-13.338,1.494-18.033,4.482
		c-4.695,2.987-7.043,7.506-7.043,13.551c0,6.049,2.347,10.67,7.043,13.872c4.695,3.201,14.688,6.652,29.983,10.35
		c15.292,3.701,26.816,8.893,34.573,15.579c7.753,6.689,11.63,16.539,11.63,29.557s-4.908,23.582-14.725,31.691
		c-9.817,8.11-22.694,12.164-38.627,12.164c-23.335,0-44.036-8.036-62.102-24.115l15.792-18.993
		c15.078,13.091,30.731,19.634,46.95,19.634c8.109,0,14.545-1.741,19.313-5.229c4.766-3.485,7.15-8.109,7.15-13.872
		c0-5.762-2.241-10.244-6.723-13.445c-4.481-3.201-12.201-6.115-23.155-8.75c-10.957-2.631-19.28-5.049-24.969-7.256
		c-5.692-2.204-10.743-5.085-15.152-8.643c-8.823-6.686-13.231-16.929-13.231-30.731c0-13.798,5.015-24.435,15.045-31.904
		c10.031-7.469,22.441-11.204,37.24-11.204c9.53,0,18.993,1.567,28.383,4.695c9.39,3.131,17.5,7.543,24.329,13.231L440.888,64.97
		c-4.411-3.982-10.387-7.256-17.926-9.817C415.419,52.593,407.987,51.312,400.661,51.312z"/>
</g>
<path fill="#FFFFFF" d="M28.161,180.851V31.678h25.182v64.663h74.053V31.678h25.182V180.85h-25.182v-61.035H53.343v61.035H28.161
	V180.851z"/>
<path fill="#FFFFFF" d="M297.267,108.292h25.182v51.005c-14.085,15.509-34.218,23.261-60.394,23.261
	c-22.054,0-40.514-7.256-55.379-21.768c-14.869-14.512-22.301-32.865-22.301-55.059s7.576-40.687,22.728-55.486
	c15.152-14.795,33.469-22.194,54.953-22.194c21.481,0,39.337,6.262,53.566,18.78l-13.445,19.207
	c-5.835-4.978-11.704-8.43-17.606-10.35c-5.905-1.92-12.771-2.881-20.594-2.881c-15.082,0-27.743,4.875-37.987,14.618
	c-10.244,9.747-15.365,22.551-15.365,38.413c0,15.866,4.978,28.597,14.939,38.2c9.957,9.603,22.014,14.405,36.173,14.405
	c14.155,0,25.999-3.058,35.533-9.176v-40.975H297.267z"/>
<path fill="#FFFFFF" d="M400.661,51.312c-7.329,0-13.338,1.494-18.033,4.482c-4.695,2.987-7.043,7.506-7.043,13.551
	c0,6.049,2.347,10.67,7.043,13.872c4.695,3.201,14.688,6.652,29.983,10.35c15.292,3.701,26.816,8.893,34.573,15.579
	c7.753,6.689,11.63,16.539,11.63,29.557s-4.908,23.582-14.725,31.691c-9.817,8.11-22.694,12.164-38.627,12.164
	c-23.335,0-44.036-8.036-62.102-24.115l15.792-18.993c15.078,13.091,30.731,19.634,46.95,19.634
	c8.109,0,14.545-1.741,19.313-5.229c4.766-3.485,7.15-8.109,7.15-13.872c0-5.762-2.241-10.244-6.723-13.445
	c-4.481-3.201-12.201-6.115-23.155-8.75c-10.957-2.631-19.28-5.049-24.969-7.256c-5.692-2.204-10.743-5.085-15.152-8.643
	c-8.823-6.686-13.231-16.929-13.231-30.731c0-13.798,5.015-24.435,15.045-31.904c10.031-7.469,22.441-11.204,37.24-11.204
	c9.53,0,18.993,1.567,28.383,4.695c9.39,3.131,17.5,7.543,24.329,13.231L440.888,64.97c-4.411-3.982-10.387-7.256-17.926-9.817
	C415.419,52.593,407.987,51.312,400.661,51.312z"/>

<path fill="#F5A00F" d="M662.198,201.408c0,6.627-5.373,12-12,12H484.701V0h165.496c6.627,0,12,5.373,12,12L662.198,201.408
	L662.198,201.408z"/>
<g opacity="0.5">
	<path fill="none" stroke="#1F201D" stroke-width="4" d="M510.281,31.678h25.182v72.772l68.291-72.772h32.011l-59.967,65.303
		l60.821,83.869h-29.877l-49.511-65.303l-21.767,23.475v41.828h-25.182V29.678L510.281"/>
</g>
<path fill="#FFFFFF" d="M510.281,31.678h25.182v72.772l68.291-72.772h32.011l-59.967,65.303l60.821,83.869h-29.877l-49.511-65.303
	l-21.767,23.475v41.828h-25.182L510.281,31.678L510.281,31.678z"/>

<path fill="#444444" d="M3.729,268.311v-26.877h4.537v11.65h13.342v-11.65h4.537v26.877h-4.537v-10.997H8.267v10.997H3.729z"/>
<path fill="#444444" d="M49.562,268.311H45.64v-2.729c-1.692,2.024-3.96,3.037-6.806,3.037c-2.128,0-3.89-0.602-5.287-1.808
	c-1.397-1.204-2.095-2.812-2.095-4.825c0-2.012,0.743-3.518,2.23-4.518c1.486-1,3.499-1.5,6.037-1.5h5.575v-0.769
	c0-2.717-1.513-4.076-4.537-4.076c-1.897,0-3.871,0.692-5.921,2.076l-1.922-2.691c2.486-1.974,5.306-2.96,8.459-2.96
	c2.409,0,4.376,0.609,5.902,1.826c1.525,1.218,2.288,3.134,2.288,5.748V268.311z M45.255,260.697v-1.73h-4.845
	c-3.102,0-4.652,0.975-4.652,2.923c0,0.999,0.385,1.763,1.153,2.287c0.769,0.526,1.839,0.789,3.211,0.789
	c1.371,0,2.569-0.385,3.595-1.154C44.742,263.043,45.255,262.005,45.255,260.697z"/>
<path fill="#444444" d="M69.863,258.929v-11.073h4.306v20.455h-4.306v-3.729c-0.692,1.256-1.647,2.243-2.865,2.961
	c-1.218,0.718-2.532,1.076-3.941,1.076c-2.307,0-4.172-0.705-5.595-2.115c-1.422-1.409-2.134-3.447-2.134-6.113v-12.534h4.306
	v11.228c0,3.768,1.563,5.651,4.691,5.651c1.486,0,2.781-0.493,3.884-1.48C69.312,262.268,69.863,260.826,69.863,258.929z"/>
<path fill="#444444" d="M94.971,262.197c0,1.948-0.706,3.505-2.115,4.672c-1.41,1.166-3.217,1.749-5.421,1.749
	c-1.487,0-3.032-0.27-4.633-0.808c-1.602-0.538-3.019-1.294-4.249-2.269l2.076-3.345c2.384,1.794,4.691,2.691,6.921,2.691
	c0.974,0,1.743-0.225,2.307-0.673c0.563-0.448,0.846-1.02,0.846-1.711c0-1.025-1.359-1.948-4.076-2.769
	c-0.206-0.077-0.359-0.128-0.461-0.154c-4.255-1.153-6.383-3.075-6.383-5.768c0-1.896,0.737-3.415,2.211-4.556
	s3.39-1.711,5.749-1.711c2.358,0,4.588,0.691,6.69,2.076l-1.615,3.191c-1.667-1.103-3.474-1.653-5.421-1.653
	c-1.025,0-1.859,0.186-2.499,0.558c-0.641,0.371-0.961,0.929-0.961,1.672c0,0.667,0.333,1.154,1,1.462
	c0.461,0.23,1.108,0.448,1.942,0.653c0.833,0.205,1.57,0.41,2.211,0.615c0.641,0.205,1.262,0.436,1.865,0.692
	c0.602,0.256,1.25,0.614,1.942,1.076C94.279,258.813,94.971,260.249,94.971,262.197z"/>
<path fill="#444444" d="M99.508,258.852v-4.037h12.765v4.037H99.508z"/>
<path fill="#444444" d="M142.994,258.929v-11.073h4.306v20.455h-4.306v-3.729c-0.692,1.256-1.647,2.243-2.865,2.961
	c-1.218,0.718-2.532,1.076-3.941,1.076c-2.307,0-4.172-0.705-5.595-2.115c-1.422-1.409-2.134-3.447-2.134-6.113v-12.534h4.306
	v11.228c0,3.768,1.563,5.651,4.691,5.651c1.486,0,2.781-0.493,3.884-1.48C142.442,262.268,142.994,260.826,142.994,258.929z"/>
<path fill="#444444" d="M157.835,257.237v11.073h-4.307v-20.455h4.307v3.729c0.692-1.256,1.646-2.243,2.864-2.961
	c1.217-0.717,2.531-1.076,3.941-1.076c2.307,0,4.172,0.705,5.594,2.114c1.423,1.41,2.134,3.448,2.134,6.113v12.535h-4.307v-11.228
	c0-3.768-1.563-5.652-4.691-5.652c-1.487,0-2.781,0.494-3.883,1.48C158.386,253.898,157.835,255.34,157.835,257.237z"/>
<path fill="#444444" d="M179.944,265.696c-1.922-1.948-2.884-4.512-2.884-7.69c0-3.178,0.986-5.716,2.96-7.613
	c1.974-1.896,4.326-2.845,7.056-2.845s4.928,1.153,6.594,3.46V239.78h4.307v28.53h-4.307v-3.076
	c-1.589,2.256-3.909,3.384-6.959,3.384C184.122,268.618,181.866,267.645,179.944,265.696z M181.367,258.179
	c0,1.961,0.627,3.557,1.884,4.787c1.256,1.23,2.73,1.846,4.422,1.846s3.127-0.621,4.306-1.865c1.179-1.242,1.769-2.838,1.769-4.786
	s-0.59-3.576-1.769-4.884c-1.179-1.307-2.627-1.961-4.345-1.961c-1.718,0-3.191,0.654-4.422,1.961
	C181.981,254.584,181.367,256.218,181.367,258.179z"/>
<path fill="#444444" d="M233.965,255.237h4.537v9.189c-2.538,2.795-6.165,4.191-10.881,4.191c-3.974,0-7.299-1.308-9.978-3.922
	c-2.679-2.614-4.018-5.921-4.018-9.92s1.365-7.331,4.095-9.997s6.03-3.999,9.901-3.999c3.87,0,7.087,1.128,9.651,3.384l-2.422,3.46
	c-1.051-0.896-2.108-1.519-3.172-1.864c-1.064-0.347-2.301-0.52-3.71-0.52c-2.717,0-4.999,0.879-6.844,2.634
	c-1.846,1.757-2.769,4.063-2.769,6.921c0,2.859,0.897,5.152,2.692,6.883c1.794,1.73,3.966,2.596,6.517,2.596
	c2.55,0,4.684-0.551,6.402-1.653V255.237z"/>
<path fill="#444444" d="M260.419,268.311h-3.922v-2.729c-1.692,2.024-3.96,3.037-6.806,3.037c-2.128,0-3.89-0.602-5.287-1.808
	c-1.397-1.204-2.095-2.812-2.095-4.825c0-2.012,0.743-3.518,2.23-4.518c1.486-1,3.499-1.5,6.037-1.5h5.575v-0.769
	c0-2.717-1.513-4.076-4.537-4.076c-1.897,0-3.871,0.692-5.921,2.076l-1.922-2.691c2.486-1.974,5.306-2.96,8.459-2.96
	c2.409,0,4.376,0.609,5.902,1.826c1.525,1.218,2.288,3.134,2.288,5.748V268.311z M256.112,260.697v-1.73h-4.845
	c-3.102,0-4.652,0.975-4.652,2.923c0,0.999,0.385,1.763,1.153,2.287c0.769,0.526,1.839,0.789,3.211,0.789
	c1.371,0,2.569-0.385,3.595-1.154C255.599,263.043,256.112,262.005,256.112,260.697z"/>
<path fill="#444444" d="M277.144,251.893c-2.128,0-3.729,0.692-4.806,2.076s-1.615,3.243-1.615,5.575v8.767h-4.307v-20.455h4.307
	v4.114c0.692-1.282,1.634-2.333,2.826-3.153s2.454-1.243,3.787-1.269l0.039,4.345C277.298,251.893,277.221,251.893,277.144,251.893
	z"/>
<path fill="#444444" d="M286.987,251.315v10.382c0,0.975,0.256,1.749,0.769,2.326c0.513,0.577,1.23,0.865,2.153,0.865
	s1.807-0.448,2.653-1.346l1.769,3.037c-1.513,1.359-3.186,2.038-5.018,2.038c-1.833,0-3.396-0.635-4.691-1.903
	s-1.941-2.979-1.941-5.133v-10.267h-2.576v-3.46h2.576v-6.422h4.306v6.422h5.383v3.46H286.987z"/>
<path fill="#444444" d="M316.786,259.967h-16.033c0.102,1.487,0.781,2.686,2.038,3.595c1.256,0.91,2.691,1.365,4.307,1.365
	c2.562,0,4.511-0.808,5.844-2.422l2.461,2.691c-2.205,2.281-5.076,3.422-8.613,3.422c-2.871,0-5.313-0.955-7.325-2.864
	c-2.013-1.909-3.019-4.473-3.019-7.69c0-3.217,1.025-5.773,3.076-7.671c2.05-1.896,4.466-2.845,7.248-2.845
	c2.781,0,5.146,0.84,7.094,2.519c1.948,1.679,2.922,3.992,2.922,6.939V259.967z M300.752,256.583h11.727
	c0-1.717-0.538-3.037-1.615-3.96s-2.403-1.385-3.98-1.385c-1.576,0-2.993,0.481-4.249,1.442
	C301.38,253.642,300.752,254.943,300.752,256.583z"/>
<path fill="#444444" d="M325.821,257.237v11.073h-4.307v-20.455h4.307v3.729c0.692-1.256,1.646-2.243,2.864-2.961
	c1.218-0.717,2.531-1.076,3.941-1.076c2.307,0,4.172,0.705,5.595,2.114c1.422,1.41,2.134,3.448,2.134,6.113v12.535h-4.307v-11.228
	c0-3.768-1.563-5.652-4.69-5.652c-1.487,0-2.782,0.494-3.884,1.48C326.372,253.898,325.821,255.34,325.821,257.237z"/>
<path fill="#444444" d="M360.926,262.197c0,1.948-0.705,3.505-2.114,4.672c-1.41,1.166-3.217,1.749-5.422,1.749
	c-1.486,0-3.031-0.27-4.633-0.808c-1.603-0.538-3.019-1.294-4.249-2.269l2.076-3.345c2.385,1.794,4.691,2.691,6.922,2.691
	c0.974,0,1.742-0.225,2.307-0.673c0.563-0.448,0.846-1.02,0.846-1.711c0-1.025-1.358-1.948-4.075-2.769
	c-0.206-0.077-0.359-0.128-0.462-0.154c-4.255-1.153-6.383-3.075-6.383-5.768c0-1.896,0.736-3.415,2.211-4.556
	c1.474-1.141,3.39-1.711,5.748-1.711s4.589,0.691,6.69,2.076l-1.614,3.191c-1.667-1.103-3.474-1.653-5.422-1.653
	c-1.025,0-1.858,0.186-2.499,0.558c-0.642,0.371-0.962,0.929-0.962,1.672c0,0.667,0.333,1.154,1,1.462
	c0.462,0.23,1.108,0.448,1.942,0.653c0.832,0.205,1.569,0.41,2.21,0.615s1.263,0.436,1.865,0.692
	c0.602,0.256,1.25,0.614,1.941,1.076C360.234,258.813,360.926,260.249,360.926,262.197z"/>
<path fill="#444444" d="M384.843,259.967h-16.034c0.103,1.487,0.782,2.686,2.038,3.595c1.256,0.91,2.691,1.365,4.307,1.365
	c2.562,0,4.511-0.808,5.844-2.422l2.461,2.691c-2.204,2.281-5.075,3.422-8.612,3.422c-2.871,0-5.312-0.955-7.325-2.864
	s-3.018-4.473-3.018-7.69c0-3.217,1.024-5.773,3.075-7.671c2.051-1.896,4.467-2.845,7.248-2.845s5.146,0.84,7.094,2.519
	s2.923,3.992,2.923,6.939V259.967z M368.809,256.583h11.728c0-1.717-0.538-3.037-1.615-3.96c-1.076-0.923-2.402-1.385-3.979-1.385
	c-1.576,0-2.993,0.481-4.248,1.442C369.437,253.642,368.809,254.943,368.809,256.583z"/>
<path fill="#444444" d="M400.299,251.893c-2.128,0-3.729,0.692-4.806,2.076c-1.077,1.384-1.615,3.243-1.615,5.575v8.767h-4.307
	v-20.455h4.307v4.114c0.692-1.282,1.634-2.333,2.826-3.153c1.191-0.82,2.454-1.243,3.787-1.269l0.038,4.345
	C400.453,251.893,400.376,251.893,400.299,251.893z"/>
<path fill="#444444" d="M410.258,268.311l-8.229-20.455h4.46l6.229,15.457l6.229-15.457h4.46l-8.229,20.455H410.258z"/>
<path fill="#444444" d="M427.099,243.779c-0.538-0.538-0.808-1.179-0.808-1.922s0.27-1.385,0.808-1.923s1.179-0.808,1.922-0.808
	s1.385,0.27,1.923,0.808s0.808,1.18,0.808,1.923s-0.27,1.384-0.808,1.922s-1.18,0.808-1.923,0.808S427.637,244.317,427.099,243.779
	z M431.136,268.311h-4.307v-20.455h4.307V268.311z"/>
<path fill="#444444" d="M446.438,268.618c-2.845,0-5.293-0.967-7.344-2.903c-2.051-1.935-3.076-4.466-3.076-7.594
	c0-3.127,1.07-5.671,3.211-7.632c2.14-1.961,4.748-2.941,7.824-2.941s5.678,1.063,7.806,3.191l-2.538,3.114
	c-1.769-1.538-3.551-2.308-5.345-2.308s-3.352,0.597-4.671,1.788c-1.321,1.192-1.98,2.73-1.98,4.614s0.653,3.479,1.961,4.787
	s2.915,1.961,4.825,1.961c1.909,0,3.711-0.871,5.402-2.614l2.538,2.768C452.564,267.362,449.693,268.618,446.438,268.618z"/>
<path fill="#444444" d="M478.544,259.967H462.51c0.103,1.487,0.782,2.686,2.038,3.595c1.256,0.91,2.691,1.365,4.307,1.365
	c2.562,0,4.511-0.808,5.844-2.422l2.461,2.691c-2.204,2.281-5.075,3.422-8.612,3.422c-2.871,0-5.312-0.955-7.325-2.864
	s-3.018-4.473-3.018-7.69c0-3.217,1.024-5.773,3.075-7.671c2.051-1.896,4.467-2.845,7.248-2.845s5.146,0.84,7.094,2.519
	s2.923,3.992,2.923,6.939V259.967z M462.51,256.583h11.728c0-1.717-0.538-3.037-1.615-3.96c-1.076-0.923-2.402-1.385-3.979-1.385
	c-1.576,0-2.993,0.481-4.248,1.442C463.138,253.642,462.51,254.943,462.51,256.583z"/>
<path fill="#444444" d="M494.423,241.434h4.537v13.112l12.304-13.112h5.768l-10.804,11.766l10.958,15.111h-5.383l-8.921-11.766
	l-3.922,4.229v7.536h-4.537V241.434z"/>
<path fill="#444444" d="M536.41,265.562c-2.051,2.038-4.614,3.057-7.689,3.057c-3.076,0-5.64-1.019-7.69-3.057
	s-3.076-4.53-3.076-7.479c0-2.947,1.025-5.44,3.076-7.479s4.614-3.057,7.69-3.057c3.075,0,5.639,1.019,7.689,3.057
	s3.076,4.531,3.076,7.479C539.486,261.031,538.461,263.523,536.41,265.562z M524.087,262.908c1.218,1.244,2.762,1.865,4.634,1.865
	c1.87,0,3.415-0.621,4.633-1.865c1.217-1.243,1.826-2.852,1.826-4.825s-0.609-3.582-1.826-4.825
	c-1.218-1.243-2.763-1.865-4.633-1.865c-1.872,0-3.416,0.622-4.634,1.865s-1.826,2.852-1.826,4.825
	S522.869,261.665,524.087,262.908z"/>
<path fill="#444444" d="M553.675,268.311h-4.922l-7.074-20.455h4.46l5.075,15.457l5.075-15.457h4.461l5.075,15.457l5.075-15.457
	h4.46l-7.074,20.455h-4.922l-4.845-13.996L553.675,268.311z"/>
<path fill="#444444" d="M595.547,268.311h-3.922v-2.729c-1.692,2.024-3.961,3.037-6.806,3.037c-2.128,0-3.891-0.602-5.287-1.808
	c-1.397-1.204-2.096-2.812-2.096-4.825c0-2.012,0.743-3.518,2.23-4.518c1.486-1,3.499-1.5,6.036-1.5h5.575v-0.769
	c0-2.717-1.513-4.076-4.536-4.076c-1.897,0-3.871,0.692-5.922,2.076l-1.923-2.691c2.486-1.974,5.307-2.96,8.459-2.96
	c2.409,0,4.377,0.609,5.902,1.826c1.525,1.218,2.288,3.134,2.288,5.748V268.311z M591.24,260.697v-1.73h-4.845
	c-3.102,0-4.652,0.975-4.652,2.923c0,0.999,0.385,1.763,1.153,2.287c0.77,0.526,1.839,0.789,3.211,0.789
	c1.371,0,2.569-0.385,3.595-1.154C590.728,263.043,591.24,262.005,591.24,260.697z"/>
<path fill="#444444" d="M616.116,262.197c0,1.948-0.705,3.505-2.114,4.672c-1.41,1.166-3.217,1.749-5.422,1.749
	c-1.486,0-3.031-0.27-4.633-0.808c-1.603-0.538-3.019-1.294-4.249-2.269l2.076-3.345c2.385,1.794,4.691,2.691,6.922,2.691
	c0.974,0,1.742-0.225,2.307-0.673c0.563-0.448,0.846-1.02,0.846-1.711c0-1.025-1.358-1.948-4.075-2.769
	c-0.206-0.077-0.359-0.128-0.462-0.154c-4.255-1.153-6.383-3.075-6.383-5.768c0-1.896,0.736-3.415,2.211-4.556
	c1.474-1.141,3.39-1.711,5.748-1.711s4.589,0.691,6.69,2.076l-1.614,3.191c-1.667-1.103-3.474-1.653-5.422-1.653
	c-1.025,0-1.858,0.186-2.499,0.558c-0.642,0.371-0.962,0.929-0.962,1.672c0,0.667,0.333,1.154,1,1.462
	c0.462,0.23,1.108,0.448,1.942,0.653c0.832,0.205,1.569,0.41,2.21,0.615s1.263,0.436,1.865,0.692
	c0.602,0.256,1.25,0.614,1.941,1.076C615.425,258.813,616.116,260.249,616.116,262.197z"/>
<path fill="#444444" d="M630.074,268.618c-2.845,0-5.293-0.967-7.344-2.903c-2.051-1.935-3.076-4.466-3.076-7.594
	c0-3.127,1.07-5.671,3.211-7.632c2.14-1.961,4.748-2.941,7.824-2.941s5.678,1.063,7.806,3.191l-2.538,3.114
	c-1.769-1.538-3.551-2.308-5.345-2.308s-3.352,0.597-4.671,1.788c-1.321,1.192-1.98,2.73-1.98,4.614s0.653,3.479,1.961,4.787
	s2.915,1.961,4.825,1.961c1.909,0,3.711-0.871,5.402-2.614l2.538,2.768C636.2,267.362,633.329,268.618,630.074,268.618z"/>
<path fill="#444444" d="M647.453,257.237v11.073h-4.307v-28.491h4.307v11.766c0.615-1.256,1.544-2.243,2.787-2.961
	c1.243-0.717,2.583-1.076,4.019-1.076c2.307,0,4.172,0.705,5.595,2.114c1.422,1.41,2.134,3.448,2.134,6.113v12.535h-4.307v-11.228
	c0-3.768-1.563-5.652-4.69-5.652c-1.487,0-2.782,0.494-3.884,1.48C648.004,253.898,647.453,255.34,647.453,257.237z"/>

</svg>
